<?xml version="1.0" encoding="UTF-8"?>
<svg width="456px" height="126px" viewBox="0 0 456 126" version="1.1" xmlns="http://www.w3.org/2000/svg" xmlns:xlink="http://www.w3.org/1999/xlink">
    <!-- Generator: Sketch 40.3 (33839) - http://www.bohemiancoding.com/sketch -->
    <title>badge_en_stroke</title>
    <desc>Created with Sketch.</desc>
    <defs>
        <polygon id="path-1" points="0 125.82 456 125.82 456 0 0 0"></polygon>
    </defs>
    <g id="EN" stroke="none" stroke-width="1" fill="none" fill-rule="evenodd">
        <g id="badge_en_stroke">
            <g id="Group">
                <g id="bg">
                    <mask id="mask-2" fill="white">
                        <use xlink:href="#path-1"></use>
                    </mask>
                    <g id="Clip-2"></g>
                    <path d="M456.150815,110.37 C456.150815,117.387 450.694302,123.126 444.022694,123.126 L12.1281204,123.126 C5.45651323,123.126 0,117.387 0,110.37 L0,15.756 C0,8.739 5.45651323,3 12.1281204,3 L444.022694,3 C450.694302,3 456.150815,8.739 456.150815,15.756 L456.150815,110.37" id="Fill-1" fill="#000105" mask="url(#mask-2)"></path>
                    <path d="M441.106815,0 L14.8931852,0 C6.74148148,0 0,7.005 0,15.693 L0,110.307 C0,118.995 6.74148148,126 14.8931852,126 L441.106815,126 C449.258519,126 456,118.995 456,110.307 L456,15.693 C456,7.005 449.258519,0 441.106815,0 L441.106815,0 Z M441.106815,3 C447.690667,3 453.185185,8.676 453.185185,15.693 L453.185185,110.307 C453.185185,117.324 447.690667,123 441.106815,123 L14.8931852,123 C8.30933333,123 2.81481481,117.324 2.81481481,110.307 L2.81481481,15.693 C2.81481481,8.676 8.30933333,3 14.8931852,3 L441.925926,3 L441.106815,3 Z" id="Fill-3" fill="#ABADA9" mask="url(#mask-2)"></path>
                </g>
                <g id="Imported-Layers" transform="translate(20.000000, 21.000000)">
                    <path d="M64,56 C64,73.672 49.673,88 32,88 C14.327,88 0,73.672 0,56 C0,38.327 14.327,24 32,24 C49.673,24 64,38.327 64,56" id="Fill-1" fill="#FFCC02"></path>
                    <polygon id="Fill-2" fill="#EE0000" points="40 13 48 13 48 56 40 56"></polygon>
                    <path d="M48,56 C48,64.836 40.836,72 32,72 C23.164,72 16,64.836 16,56 C16,47.164 23.164,40 32,40 C40.836,40 48,47.164 48,56" id="Fill-3" fill="#EE0000"></path>
                    <polyline id="Fill-4" fill="#EE0000" points="64 8 40 0 40 16 64 24 64 8"></polyline>
                </g>
                <path d="M123.432,103 L123.432,84.784 L136.824,46.192 L131.136,46.192 L120.696,77.008 L111.624,51.52 L105.432,51.52 L117.744,84.568 L117.744,103 L123.432,103 Z M148.056,95.872 C147.048,97.456 145.104,98.752 143.16,98.752 C140.28,98.752 138.912,96.016 138.912,91.84 C138.912,87.16 140.424,84.064 147.408,84.064 L148.056,84.064 L148.056,95.872 Z M153.6,94.792 L153.6,77.728 C153.6,68.944 150.072,66.208 143.664,66.208 C139.992,66.208 136.68,67.72 135.024,69.088 L136.104,74.056 C137.976,72.4 140.424,70.888 143.304,70.888 C146.472,70.888 148.056,72.904 148.056,77.656 L148.056,79.816 L147.264,79.816 C137.112,79.816 133.152,84.712 133.152,92.488 C133.152,99.616 136.68,103.504 141.864,103.504 C145.032,103.504 147.048,102.136 148.632,100.12 L148.992,100.12 C149.064,101.056 149.28,102.208 149.496,103 L154.248,103 C153.96,101.272 153.6,98.248 153.6,94.792 L153.6,94.792 Z M166.2,74.848 C167.496,73.048 169.512,71.248 171.888,71.248 C174.048,71.248 175.272,72.184 175.272,74.92 L175.272,103 L180.96,103 L180.96,74.416 C180.96,68.872 178.44,66.208 173.688,66.208 C170.304,66.208 167.568,68.44 166.56,69.808 L166.2,69.808 L166.2,66.64 L160.584,66.64 L160.584,103 L166.2,103 L166.2,74.848 Z M197.52,103.504 C200.472,103.504 202.488,102.136 204.072,100.12 L204.432,100.12 L204.864,103 L209.04,103 L209.04,51.52 L203.424,51.52 L203.424,67.576 C202.344,66.784 200.544,66.208 198.816,66.208 C191.544,66.208 186.504,72.76 186.504,86.224 C186.504,97.456 190.392,103.504 197.52,103.504 L197.52,103.504 Z M203.424,95.944 C202.488,97.384 200.976,98.752 198.168,98.752 C194.064,98.752 192.48,93.568 192.48,85.072 C192.48,77.656 194.64,70.816 199.176,70.816 C201.048,70.816 202.272,71.392 203.424,72.544 L203.424,95.944 Z M235.464,100.552 L234.168,96.232 C232.728,97.24 230.424,98.68 227.256,98.68 C222.792,98.68 220.488,94.36 220.488,86.152 L235.608,86.152 L235.608,83.056 C235.608,70.744 231.648,66.208 225.6,66.208 C217.896,66.208 214.656,74.704 214.656,86.368 C214.656,97.528 219.264,103.504 226.752,103.504 C230.352,103.504 233.16,102.352 235.464,100.552 L235.464,100.552 Z M225.6,70.816 C228.84,70.816 229.848,75.352 229.848,81.544 L220.56,81.544 C220.92,75.064 222.144,70.816 225.6,70.816 L225.6,70.816 Z M254.544,66.712 L249.576,79.888 L244.896,66.712 L239.064,66.712 L245.904,84.208 L238.344,103 L243.888,103 L249.36,88.024 L254.976,103 L260.808,103 L253.248,83.704 L260.016,66.712 L254.544,66.712 Z M322.512,100.84 C319.272,100.84 317.76,98.32 317.76,93.28 L317.76,66.712 L314.376,66.712 L314.376,93.712 C314.376,100.192 317.112,103.72 321.936,103.72 C326.904,103.72 329.568,99.616 330.576,97.024 L330.72,97.024 L330.864,103 L333.96,103 L333.96,66.712 L330.576,66.712 L330.576,93.208 C328.776,97.816 326.184,100.84 322.512,100.84 L322.512,100.84 Z M346.848,103.72 C351.6,103.72 355.704,100.408 355.704,94.648 C355.704,84.496 343.104,81.472 343.104,73.624 C343.104,70.456 345.48,68.728 348.144,68.728 C350.664,68.728 352.464,69.664 354.048,71.392 L354.984,68.296 C353.76,67.288 351.528,65.992 348,65.992 C344.04,65.992 340.08,68.584 340.08,74.056 C340.08,83.272 352.536,86.8 352.536,95.08 C352.536,98.176 350.376,100.984 346.776,100.984 C343.32,100.984 341.592,99.76 339.864,98.248 L339.144,101.2 C340.512,102.352 342.816,103.72 346.848,103.72 L346.848,103.72 Z M363.192,59.584 C364.416,59.584 365.496,58.576 365.496,57.28 C365.496,56.056 364.416,54.904 363.192,54.904 C361.896,54.904 360.888,56.056 360.888,57.28 C360.888,58.576 361.896,59.584 363.192,59.584 L363.192,59.584 Z M361.464,66.712 L361.464,103 L364.848,103 L364.848,66.712 L361.464,66.712 Z M383.064,100.768 C377.448,100.768 374.928,94.864 374.928,84.928 C374.928,74.704 377.52,68.872 383.064,68.872 C386.16,68.872 388.464,70.744 390.048,72.976 L390.984,69.376 C389.4,67.432 386.808,65.992 383.064,65.992 C375.648,65.992 371.544,72.976 371.544,84.928 C371.544,96.736 375.72,103.72 382.992,103.72 C388.68,103.72 391.344,99.688 391.344,99.688 L390.264,96.88 C390.264,96.88 387.744,100.768 383.064,100.768 L383.064,100.768 Z" id="Yandex-Music" fill="#FFFFFF"></path>
                <path d="M282.341417,66.8606792 C281.629246,64.2413589 281.060856,61.9770871 280.631756,59.643592 L280.420576,59.643592 C280.562112,62.0485434 280.631756,64.5964074 280.631756,67.1442714 L280.631756,102.599998 L277.5,102.599998 L277.5,52 L281.629246,52 L290.244946,84.3406786 C290.599908,85.6871835 291.098652,88.3042707 291.312079,90.215727 L291.525506,90.215727 C291.810824,88.3042707 292.381459,85.6134941 292.736422,84.3406786 L301.421766,52 L305.411723,52 L305.411723,102.599998 L301.992402,102.599998 L301.992402,67.1442714 C301.992402,64.73932 302.136184,62.189223 302.27772,59.643592 L301.992402,59.643592 C301.352122,62.4728152 300.853377,64.5249511 300.282742,66.6485432 L292.666777,94.8157269 L289.887737,94.8157269 L282.341417,66.8606792 Z" id="Fill-4" fill="#FFFFFF"></path>
                <path d="M107.581,21.236 L110.336,21.236 L110.336,39.535 L119.819,39.535 L119.819,42 L107.581,42 L107.581,21.236 Z M124.836,24.745 C124.333331,24.745 123.922502,24.5855016 123.6035,24.2665 C123.284498,23.9474984 123.125,23.5560023 123.125,23.092 C123.125,22.6473311 123.284498,22.255835 123.6035,21.9175 C123.922502,21.579165 124.333331,21.41 124.836,21.41 C125.338669,21.41 125.734999,21.579165 126.025,21.9175 C126.315001,22.255835 126.46,22.6473311 126.46,23.092 C126.46,23.5560023 126.315001,23.9474984 126.025,24.2665 C125.734999,24.5855016 125.338669,24.745 124.836,24.745 L124.836,24.745 Z M126.083,26.949 L126.083,42 L123.531,42 L123.531,26.949 L126.083,26.949 Z M135.334,42.29 C133.961326,42.29 132.820671,42.1595013 131.912,41.8985 C131.003329,41.6374987 130.249336,41.3136686 129.65,40.927 L130.259,38.694 C130.800336,39.0806686 131.505996,39.4189985 132.376,39.709 C133.246004,39.9990014 134.260994,40.144 135.421,40.144 C136.368338,40.144 137.160997,39.9603352 137.799,39.593 C138.437003,39.2256648 138.756,38.6263375 138.756,37.795 C138.756,37.3503311 138.664168,36.9975013 138.4805,36.7365 C138.296832,36.4754987 138.045502,36.2628342 137.7265,36.0985 C137.407498,35.9341658 137.025669,35.8085004 136.581,35.7215 C136.136331,35.6344996 135.662669,35.5426671 135.16,35.446 C134.54133,35.310666 133.92267,35.1511676 133.304,34.9675 C132.68533,34.7838324 132.129502,34.5276683 131.6365,34.199 C131.143498,33.8703317 130.742335,33.4546692 130.433,32.952 C130.123665,32.4493308 129.969,31.8113372 129.969,31.038 C129.969,29.6846599 130.486161,28.6165039 131.5205,27.8335 C132.554839,27.0504961 133.999991,26.659 135.856,26.659 C136.900005,26.659 137.813496,26.7556657 138.5965,26.949 C139.379504,27.1423343 140.08033,27.3936651 140.699,27.703 L140.09,29.878 C139.780665,29.7039991 139.476168,29.549334 139.1765,29.414 C138.876832,29.278666 138.562668,29.1675004 138.234,29.0805 C137.905332,28.9934996 137.542835,28.9258336 137.1465,28.8775 C136.750165,28.8291664 136.310336,28.805 135.827,28.805 C134.782995,28.805 133.96617,28.9644984 133.3765,29.2835 C132.78683,29.6025016 132.492,30.1679959 132.492,30.98 C132.492,31.3086683 132.569333,31.5841656 132.724,31.8065 C132.878667,32.0288344 133.096165,32.2173326 133.3765,32.372 C133.656835,32.5266674 133.995165,32.6571661 134.3915,32.7635 C134.787835,32.8698339 135.227664,32.9809994 135.711,33.097 C136.368337,33.232334 137.030497,33.3821658 137.6975,33.5465 C138.364503,33.7108342 138.963831,33.9524984 139.4955,34.2715 C140.027169,34.5905016 140.462165,35.020664 140.8005,35.562 C141.138835,36.103336 141.308,36.8283288 141.308,37.737 C141.308,38.6070043 141.129168,39.3319971 140.7715,39.912 C140.413832,40.4920029 139.949836,40.9608315 139.3795,41.3185 C138.809164,41.6761685 138.17117,41.9274993 137.4655,42.0725 C136.75983,42.2175007 136.049337,42.29 135.334,42.29 L135.334,42.29 Z M152.531,41.594 C152.221665,41.7873343 151.777003,41.951666 151.197,42.087 C150.616997,42.222334 150.046669,42.29 149.486,42.29 C148.75133,42.29 148.123003,42.1836677 147.601,41.971 C147.078997,41.7583323 146.653668,41.4731685 146.325,41.1155 C145.996332,40.7578315 145.754667,40.3518356 145.6,39.8975 C145.445333,39.4431644 145.368,38.9743357 145.368,38.491 L145.368,29.124 L143.57,29.124 L143.57,26.949 L145.368,26.949 L145.368,23.788 L147.949,23.788 L147.949,26.949 L152.299,26.949 L152.299,29.124 L147.949,29.124 L147.949,38.172 C147.949,38.8100032 148.108498,39.2739985 148.4275,39.564 C148.746502,39.8540014 149.21533,39.999 149.834,39.999 C150.220669,39.999 150.612165,39.9458339 151.0085,39.8395 C151.404835,39.7331661 151.767332,39.5833343 152.096,39.39 L152.531,41.594 Z M161.869,28.921 C160.747661,28.921 159.790671,29.2593299 158.998,29.936 C158.205329,30.61267 157.702668,31.6373265 157.49,33.01 L165.581,33.01 C165.619667,32.3139965 165.552001,31.7098359 165.378,31.1975 C165.203999,30.6851641 164.952668,30.259835 164.624,29.9215 C164.295332,29.583165 163.894169,29.3318342 163.4205,29.1675 C162.946831,29.0031658 162.429669,28.921 161.869,28.921 L161.869,28.921 Z M167.872,40.724 C167.659332,40.8786674 167.393502,41.0429991 167.0745,41.217 C166.755498,41.3910009 166.373669,41.5601658 165.929,41.7245 C165.484331,41.8888342 164.976836,42.0241661 164.4065,42.1305 C163.836164,42.2368339 163.203003,42.29 162.507,42.29 C159.974321,42.29 158.050673,41.6036735 156.736,40.231 C155.421327,38.8583265 154.764,36.934679 154.764,34.46 C154.764,33.2419939 154.942832,32.1496715 155.3005,31.183 C155.658168,30.2163285 156.155997,29.3995033 156.794,28.7325 C157.432003,28.0654967 158.190829,27.5531685 159.0705,27.1955 C159.950171,26.8378315 160.902328,26.659 161.927,26.659 C162.990339,26.659 163.947329,26.8426648 164.798,27.21 C165.648671,27.5773352 166.349497,28.1186631 166.9005,28.834 C167.451503,29.5493369 167.828499,30.4338281 168.0315,31.4875 C168.234501,32.5411719 168.229668,33.763993 168.017,35.156 L157.403,35.156 C157.499667,36.7800081 157.992662,37.9931627 158.882,38.7955 C159.771338,39.5978373 161.027992,39.999 162.652,39.999 C163.715339,39.999 164.61433,39.829835 165.349,39.4915 C166.08367,39.153165 166.702331,38.8100017 167.205,38.462 L167.872,40.724 Z M178.718,28.921 C177.557994,28.921 176.615504,29.1868307 175.8905,29.7185 C175.165496,30.2501693 174.580669,30.9316625 174.136,31.763 L174.136,42 L171.584,42 L171.584,26.949 L173.991,26.949 L174.078,29.646 L174.136,29.646 C174.542002,28.7759956 175.179996,28.0606695 176.05,27.5 C176.920004,26.9393305 178.021993,26.659 179.356,26.659 C180.844674,26.659 182.028829,27.0504961 182.9085,27.8335 C183.788171,28.6165039 184.228,29.8199919 184.228,31.444 L184.228,42 L181.676,42 L181.676,31.705 C181.676,30.6609948 181.415003,29.936002 180.893,29.53 C180.370997,29.123998 179.646005,28.921 178.718,28.921 L178.718,28.921 Z M200.439,42.29 C199.414328,42.29 198.457338,42.1160017 197.568,41.768 C196.678662,41.4199983 195.91017,40.9125033 195.2625,40.2455 C194.61483,39.5784967 194.107335,38.7616715 193.74,37.795 C193.372665,36.8283285 193.189,35.7166729 193.189,34.46 C193.189,33.2226605 193.372665,32.1158382 193.74,31.1395 C194.107335,30.1631618 194.61483,29.3463366 195.2625,28.689 C195.91017,28.0316634 196.678662,27.5290017 197.568,27.181 C198.457338,26.8329983 199.414328,26.659 200.439,26.659 C201.483005,26.659 202.449662,26.8329983 203.339,27.181 C204.228338,27.5290017 204.99683,28.0316634 205.6445,28.689 C206.29217,29.3463366 206.804498,30.1631618 207.1815,31.1395 C207.558502,32.1158382 207.747,33.2226605 207.747,34.46 C207.747,35.7166729 207.558502,36.8283285 207.1815,37.795 C206.804498,38.7616715 206.29217,39.5784967 205.6445,40.2455 C204.99683,40.9125033 204.228338,41.4199983 203.339,41.768 C202.449662,42.1160017 201.483005,42.29 200.439,42.29 L200.439,42.29 Z M200.439,39.999 C201.11567,39.999 201.743997,39.8878344 202.324,39.6655 C202.904003,39.4431656 203.401831,39.1048356 203.8175,38.6505 C204.233169,38.1961644 204.561832,37.6210035 204.8035,36.925 C205.045168,36.2289965 205.166,35.4073381 205.166,34.46 C205.166,33.5126619 205.045168,32.6910035 204.8035,31.995 C204.561832,31.2989965 204.233169,30.7238356 203.8175,30.2695 C203.401831,29.8151644 202.904003,29.4768344 202.324,29.2545 C201.743997,29.0321656 201.11567,28.921 200.439,28.921 C199.76233,28.921 199.143669,29.0321656 198.583,29.2545 C198.022331,29.4768344 197.534169,29.8151644 197.1185,30.2695 C196.702831,30.7238356 196.379001,31.2989965 196.147,31.995 C195.914999,32.6910035 195.799,33.5126619 195.799,34.46 C195.799,35.4073381 195.914999,36.2289965 196.147,36.925 C196.379001,37.6210035 196.702831,38.1961644 197.1185,38.6505 C197.534169,39.1048356 198.022331,39.4431656 198.583,39.6655 C199.143669,39.8878344 199.76233,39.999 200.439,39.999 L200.439,39.999 Z M218.274,28.921 C217.113994,28.921 216.171504,29.1868307 215.4465,29.7185 C214.721496,30.2501693 214.136669,30.9316625 213.692,31.763 L213.692,42 L211.14,42 L211.14,26.949 L213.547,26.949 L213.634,29.646 L213.692,29.646 C214.098002,28.7759956 214.735996,28.0606695 215.606,27.5 C216.476004,26.9393305 217.577993,26.659 218.912,26.659 C220.400674,26.659 221.584829,27.0504961 222.4645,27.8335 C223.344171,28.6165039 223.784,29.8199919 223.784,31.444 L223.784,42 L221.232,42 L221.232,31.705 C221.232,30.6609948 220.971003,29.936002 220.449,29.53 C219.926997,29.123998 219.202005,28.921 218.274,28.921 L218.274,28.921 Z" id="Listen-on" fill="#FFFFFF"></path>
            </g>
        </g>
    </g>
</svg>