<svg width="401.3" height="147.9" xmlns="http://www.w3.org/2000/svg" xmlns:xlink="http://www.w3.org/1999/xlink" fill="#fff">
 <style type="text/css">.st0{clip-path:url(#SVGID_2_);}</style>
 <g>
  <title>background</title>
  <rect fill="none" id="canvas_background" height="149.9" width="403.3" y="-1" x="-1"/>
 </g>
 <g>
  <title>Layer 1</title>
  <g id="svg_1">
   <defs transform="translate(-98,-125) ">
    <rect height="396.9" width="595.3" id="SVGID_1_"/>
   </defs>
   <clipPath transform="translate(-98,-125) " id="SVGID_2_">
    <use id="svg_2" xlink:href="#SVGID_1_"/>
   </clipPath>
   <path id="svg_3" d="m154,14.2c0,-0.6 -0.7,-1 -1.5,-1c-28.8,1.9 -57.7,6.4 -87.4,11.7c0,0 37.5,-6.8 87.6,-9.6c0.7,0 1.3,-0.5 1.3,-1.1c0,0.1 0,0.1 0,0" class="st0"/>
   <path id="svg_4" d="m245.2,14.2c0,-0.6 0.7,-1 1.5,-1c28.8,1.9 57.7,6.4 87.4,11.7c0,0 -37.5,-6.8 -87.6,-9.6c-0.8,0 -1.3,-0.5 -1.3,-1.1c0,0.1 0,0.1 0,0" class="st0"/>
   <path id="svg_5" d="m22.2,69l0,-1.3l14,0l0,1.3c-1,0.1 -2.1,0.4 -3.2,0.9c-1.1,0.5 -2.2,1.1 -3.2,1.8c-1.1,0.8 -2.3,1.7 -3.6,2.8l-5.6,5l12.4,15.4c0.9,1.1 1.7,2 2.2,2.5c0.5,0.5 1.1,0.9 1.7,1.2c0.6,0.3 1.2,0.5 2,0.5l0,1.3l-15.7,0l0,-1.3c2.5,0 3.7,-0.6 3.7,-1.7c0,-0.4 -0.1,-0.8 -0.4,-1.2c-0.2,-0.4 -0.6,-0.9 -1,-1.4l-9.3,-11.5l-2.9,2.6l0,8.9c0,1.3 0.2,2.2 0.6,2.9c0.4,0.7 1.1,1.1 2.1,1.2c0.5,0 0.9,0.1 1.3,0.1c0.3,0 0.6,0.1 0.9,0.1l0,1.3l-16,0l0,-1.3l0.7,0c1.4,0 2.4,-0.2 3,-0.5s1.1,-0.8 1.3,-1.4c0.2,-0.6 0.3,-1.4 0.3,-2.5l0,-21.7c0,-1 -0.1,-1.8 -0.4,-2.4c-0.2,-0.6 -0.7,-1 -1.5,-1.2c-0.8,-0.3 -1.9,-0.4 -3.5,-0.4l0,-1.3l16,0l0,1.3l-0.3,0c-1.8,0 -3,0.3 -3.6,0.9c-0.6,0.6 -0.9,1.5 -0.9,2.9l0,11.6l9.5,-8.4c1.1,-0.9 1.9,-1.8 2.4,-2.5c0.5,-0.7 0.8,-1.4 0.8,-2.1c0,-0.7 -0.2,-1.3 -0.7,-1.7c-0.5,-0.4 -1.2,-0.7 -2.1,-0.7l-1,0zm-12.5,26.2l0,-22c0,-1.7 -0.2,-2.8 -0.6,-3.4c-0.4,-0.6 -1.3,-0.8 -2.7,-0.8c0.8,0.3 1.3,0.8 1.5,1.3c0.2,0.5 0.3,1.6 0.3,3.4l0,21.9c0,1.2 -0.1,2 -0.4,2.5c-0.3,0.5 -0.8,0.9 -1.6,1.2l0.6,0c1,0 1.6,-0.2 2,-0.5c0.4,-0.3 0.6,-0.7 0.7,-1.2c0.1,-0.6 0.2,-1.4 0.2,-2.4m17.6,-1.4l-9.5,-11.8l-1.1,1l8.8,11.2c0.7,0.8 1.2,1.5 1.5,2c0.3,0.5 0.5,1 0.5,1.6c0,0.7 -0.4,1.2 -1.1,1.6l0.6,0c0.6,0 1.1,-0.2 1.5,-0.6c0.4,-0.4 0.6,-0.8 0.6,-1.3c0.1,-1 -0.6,-2.2 -1.8,-3.7m3.8,-24.8l-5.5,0c0.7,0.6 1.1,1.3 1.1,2c0,0.5 -0.1,0.9 -0.4,1.4c1.1,-1 1.9,-1.7 2.5,-2.1c0.7,-0.5 1.4,-0.9 2.3,-1.3" class="st0"/>
   <path id="svg_6" d="m72.3,94.8l-2.6,-6.6l-11.1,0l-1.5,4c-0.4,1 -0.6,2.1 -0.6,3.1c0,1 0.3,2 1,2.7c0.7,0.8 1.6,1.2 2.8,1.3l0,1.3l-10.8,0l0,-1.3c2.4,-0.4 4.4,-2.4 5.8,-6.2l8.1,-20.6c-0.4,-0.7 -0.9,-1.2 -1.3,-1.5c-0.5,-0.3 -1.2,-0.4 -2.1,-0.5l0,-1.1l5.6,-1.9l2.2,0l10.8,27.5c0.6,1.6 1.2,2.6 1.9,3.2c0.6,0.5 1.6,1 2.9,1.2l0,1.3l-13.9,0l0,-1.3c1.2,-0.1 2.1,-0.3 2.7,-0.6c0.6,-0.2 0.9,-0.7 0.9,-1.4c-0.1,-0.8 -0.4,-1.6 -0.8,-2.6m-20.4,4.4l4.5,0c-1,-0.8 -1.5,-1.7 -1.5,-2.9c0,-0.3 0,-0.6 0,-0.8c-0.4,0.8 -0.8,1.4 -1.3,2c-0.3,0.6 -0.9,1.2 -1.7,1.7m7.3,-12.5l9.9,0l-5,-12.5l-4.9,12.5zm15.2,7.2l-8.4,-21c-0.4,-1.1 -0.8,-1.8 -1.3,-2.2c-0.4,-0.4 -1,-0.7 -1.8,-0.7c-0.5,0 -0.8,0 -1.1,0.1c0.7,0.3 1.3,0.7 1.7,1.2c0.4,0.5 0.7,1.2 1.1,2.1l8.3,21c0.5,1.2 0.8,2.2 0.8,2.9c0,0.5 -0.1,0.8 -0.3,1s-0.5,0.5 -1,0.9l0.5,0c0.7,0 1.3,-0.2 1.7,-0.6c0.4,-0.4 0.6,-0.8 0.6,-1.4c0.1,-0.7 -0.2,-1.8 -0.8,-3.3" class="st0"/>
   <path id="svg_7" d="m111,100.5l-16.2,0l0,-1.3c1.5,0 2.6,-0.2 3.4,-0.4c0.7,-0.2 1.2,-0.6 1.5,-1.1c0.3,-0.5 0.4,-1.4 0.4,-2.6l0,-21.7c0,-1.2 -0.1,-2.2 -0.4,-2.8c-0.2,-0.6 -0.7,-1 -1.4,-1.3c-0.7,-0.2 -1.9,-0.4 -3.5,-0.4l0,-1.3l18.5,0c2.3,0 4.4,0.4 6.1,1.2c1.7,0.8 3,1.9 3.9,3.2s1.3,2.8 1.3,4.3c0,1 -0.2,2 -0.6,2.9c-0.4,1 -1,1.8 -1.8,2.6c-0.8,0.8 -1.7,1.4 -2.8,2c-1.1,0.6 -2.3,0.9 -3.8,1.2c1.1,1.1 2.4,2.6 4,4.5l2.3,2.7c0.1,0.1 0.3,0.3 0.5,0.5c0.2,0.2 0.4,0.5 0.7,0.8c0.7,0.9 1.4,1.6 1.9,2.2c0.5,0.6 1,1.1 1.5,1.6c0.5,0.5 1,0.8 1.5,1.1c0.5,0.3 1,0.5 1.5,0.7l0,1.3l-4.4,0c-1,0 -1.9,-0.2 -2.8,-0.7c-0.9,-0.4 -1.7,-1.1 -2.6,-1.9c-0.8,-0.8 -1.8,-1.9 -2.8,-3.2l-3.3,-4.1c-1.5,-2 -2.6,-3.3 -3.4,-4.1c-0.7,-0.8 -1.4,-1.1 -1.9,-1.1l-2.6,0l0,9.9c0,1 0.1,1.7 0.4,2.3c0.2,0.6 0.8,1 1.6,1.2c0.5,0.1 1,0.2 1.7,0.3c0.7,0.1 1.1,0.1 1.5,0.1l0,1.4l0.1,0zm-10.2,-27.2l0,22.9c0,1.5 -0.5,2.5 -1.6,3c2,0 3.1,-0.8 3.1,-2.3l0,-23.5c0,-1.2 -0.1,-2.1 -0.2,-2.7c-0.1,-0.6 -0.4,-1.1 -0.9,-1.4c-0.5,-0.3 -1.2,-0.4 -2.2,-0.4c0.8,0.4 1.3,0.8 1.5,1.4c0.2,0.7 0.3,1.6 0.3,3m5,0.4l0,10.5l3.8,0c1.3,0 2.5,-0.2 3.8,-0.6c1.2,-0.4 2.2,-0.9 2.8,-1.5c1.3,-1.2 1.9,-3 1.9,-5.5c0,-2.9 -1,-5 -3,-6.4c-0.7,-0.5 -1.4,-0.8 -2.2,-1c-0.8,-0.2 -1.7,-0.2 -2.9,-0.2c-1.2,0 -2.1,0.2 -2.7,0.5c-0.6,0.3 -1,0.8 -1.2,1.4c-0.2,0.7 -0.3,1.6 -0.3,2.8m6.1,11.8l-1.9,0c0.6,0.4 1.2,1 2,1.9c0.7,0.8 1.7,2 2.8,3.4c1.1,1.4 2.3,2.9 3.4,4.3c1,1.3 2,2.3 2.9,3c0.9,0.7 1.7,1.2 2.4,1.4c0.7,0.2 1.4,0.3 2.2,0.3c-1,-0.5 -1.9,-1.1 -2.8,-1.9c-0.9,-0.8 -1.8,-1.8 -2.9,-3.1c-1,-1.2 -2.1,-2.6 -3.2,-3.9s-2.2,-2.7 -3.4,-3.9c-0.2,-0.2 -0.3,-0.5 -0.6,-0.7s-0.5,-0.6 -0.9,-0.8m2.1,-1.4c2.1,-0.3 3.7,-1 4.8,-2.3c1.1,-1.3 1.7,-3 1.7,-5.2c0,-2.1 -0.5,-3.8 -1.5,-5.1c-1,-1.3 -2.4,-2 -4.3,-2.3c1.4,0.7 2.5,1.7 3.1,2.9c0.7,1.2 1,2.8 1,4.8c0,2.1 -0.4,3.7 -1.2,4.7c-0.7,1 -2,1.8 -3.6,2.5" class="st0"/>
   <path id="svg_8" d="m163.3,94.8l-2.6,-6.6l-11.1,0l-1.5,4c-0.4,1 -0.6,2.1 -0.6,3.1c0,1 0.3,2 1,2.7c0.7,0.8 1.6,1.2 2.8,1.3l0,1.3l-10.8,0l0,-1.3c2.4,-0.4 4.4,-2.4 5.8,-6.2l8.1,-20.6c-0.4,-0.7 -0.9,-1.2 -1.3,-1.5c-0.5,-0.3 -1.2,-0.4 -2.1,-0.5l0,-1.1l5.6,-1.9l2.2,0l10.8,27.5c0.6,1.6 1.2,2.6 1.9,3.2c0.6,0.5 1.6,1 2.9,1.2l0,1.3l-13.9,0l0,-1.3c1.2,-0.1 2.1,-0.3 2.7,-0.6s0.9,-0.7 0.9,-1.4c-0.1,-0.8 -0.3,-1.6 -0.8,-2.6m-20.4,4.4l4.5,0c-1,-0.8 -1.5,-1.7 -1.5,-2.9c0,-0.3 0,-0.6 0,-0.8c-0.4,0.8 -0.8,1.4 -1.3,2c-0.3,0.6 -0.9,1.2 -1.7,1.7m7.3,-12.5l9.9,0l-5,-12.5l-4.9,12.5zm15.2,7.2l-8.4,-21c-0.4,-1.1 -0.8,-1.8 -1.3,-2.2c-0.4,-0.4 -1,-0.7 -1.8,-0.7c-0.5,0 -0.8,0 -1.1,0.1c0.7,0.3 1.3,0.7 1.7,1.2c0.4,0.5 0.7,1.2 1.1,2.1l8.3,21c0.5,1.2 0.8,2.2 0.8,2.9c0,0.5 -0.1,0.8 -0.3,1s-0.5,0.5 -1,0.9l0.5,0c0.7,0 1.3,-0.2 1.7,-0.6c0.4,-0.4 0.6,-0.8 0.6,-1.4c0.1,-0.7 -0.2,-1.8 -0.8,-3.3" class="st0"/>
   <path id="svg_9" d="m186,67.7l27.3,0l2.9,7.5l-1.7,0c-0.9,-1.1 -2,-2 -3.1,-2.9c-1.2,-0.9 -2.3,-1.6 -3.4,-2.1c-1.1,-0.5 -2.2,-0.9 -3.2,-1c-0.9,-0.2 -1.8,-0.2 -2.8,-0.2c-1.6,0 -2.7,0.1 -3.4,0.5c-0.7,0.3 -1.1,0.8 -1.3,1.6c-0.2,0.8 -0.3,2.1 -0.3,3.9l0,8l4.3,0c2.2,0 3.8,-0.5 4.9,-1.4c1.1,-1 1.7,-2.4 1.7,-4.4l1.7,0l0,12.4l-1.7,0c-0.1,-1.6 -0.4,-2.7 -0.8,-3.5c-0.4,-0.7 -1.1,-1.2 -2,-1.5c-0.9,-0.3 -2.2,-0.4 -3.9,-0.4l-4.2,0l0,11.4c0,1.3 0.4,2.3 1.1,2.8c0.8,0.5 2.1,0.8 4,0.8l0.6,0l0,1.3l-16.6,0l0,-1.3c1.5,0 2.6,-0.2 3.3,-0.5c0.7,-0.3 1.1,-0.7 1.4,-1.3c0.2,-0.6 0.3,-1.6 0.3,-2.9l0,-20.3l0,-1.1c0,-1.5 -0.3,-2.6 -0.8,-3.2c-0.6,-0.7 -1.8,-1 -3.7,-1c-0.1,0 -0.2,0 -0.3,0c-0.1,0 -0.2,0 -0.3,0l0,-1.2zm7.4,28.5l0,-21.9c0,-1.6 -0.1,-2.8 -0.2,-3.5c-0.1,-0.7 -0.4,-1.2 -0.9,-1.6c-0.5,-0.3 -1.2,-0.4 -2.3,-0.3c0.8,0.3 1.3,0.7 1.5,1.3c0.2,0.5 0.3,1.6 0.3,3.1l0,21.8c0,1 0,1.7 -0.1,2.1c-0.1,0.5 -0.2,0.8 -0.4,1.1c-0.2,0.3 -0.6,0.6 -1.1,0.8c1.2,0 2,-0.2 2.4,-0.7c0.6,-0.3 0.8,-1.1 0.8,-2.2m14.3,-10.4l0,-4.9c-0.3,0.6 -0.7,1.1 -1.2,1.5c-0.5,0.3 -1.2,0.7 -2.1,1c0.9,0.2 1.7,0.5 2.2,0.9c0.4,0.4 0.8,0.9 1.1,1.5m5.5,-12.9l-2.3,-3.9l-4.4,0c1,0.3 1.8,0.7 2.6,1c0.7,0.4 1.4,0.8 1.9,1.2c0.6,0.4 1.3,0.9 2.2,1.7" class="st0"/>
   <path id="svg_10" d="m238.6,84.3l0,10.2c0,1.1 0.1,2 0.2,2.6c0.2,0.6 0.5,1.1 0.9,1.4c0.4,0.3 1.1,0.5 1.9,0.6c0.8,0.1 1.9,0.1 3.4,0.1c1.7,0 3.3,-0.3 4.6,-0.8c1.4,-0.5 2.7,-1.3 3.9,-2.3c1.2,-1 2.5,-2.4 4,-4.1l1.9,0l-2.9,8.4l-28.8,0l0,-1.3c1.4,0 2.4,-0.2 3.2,-0.4c0.7,-0.2 1.2,-0.6 1.5,-1c0.3,-0.5 0.5,-1.2 0.5,-2.1l0,-23c0,-1.1 -0.1,-1.9 -0.4,-2.4c-0.3,-0.5 -0.8,-0.8 -1.4,-1c-0.7,-0.2 -1.8,-0.3 -3.3,-0.4l0,-1.3l27.6,0l2.8,7.4l-1.7,0c-0.9,-1.1 -2,-2.2 -3.3,-3.1c-1.3,-0.9 -2.8,-1.7 -4.4,-2.2c-1.6,-0.6 -3.3,-0.8 -5.1,-0.8c-1.4,0 -2.5,0.2 -3.2,0.5c-0.7,0.3 -1.2,0.7 -1.4,1.3c-0.2,0.5 -0.4,1.3 -0.4,2.1l0,10.3l4.7,0c4.1,0 6.2,-1.9 6.2,-5.6l1.6,0l0,12.3l-1.5,0c-0.2,-1.9 -0.7,-3.3 -1.6,-4.1c-0.9,-0.9 -2.2,-1.3 -4,-1.3l-5.5,0zm-5.1,-11.4l0,22.5c0,1.1 -0.1,2 -0.4,2.5c-0.3,0.5 -0.7,1 -1.2,1.3c1.3,0 2.1,-0.4 2.5,-1c0.4,-0.7 0.6,-1.7 0.6,-3.2l0,-22.5c0,-1.3 -0.2,-2.2 -0.7,-2.6c-0.5,-0.4 -1.3,-0.7 -2.4,-0.7c0.6,0.3 1,0.7 1.2,1.2c0.3,0.6 0.4,1.4 0.4,2.5m15.7,12.9l0,-4.6c-0.6,1 -1.7,1.8 -3.3,2.3c0.9,0.2 1.5,0.5 2,0.8c0.5,0.4 0.9,0.9 1.3,1.5m3.8,-16.8l-4.2,0c1.2,0.4 2.2,0.9 3.1,1.4c0.9,0.5 1.9,1.2 2.9,2l-1.8,-3.4zm1,30.2l1.6,-4c-0.9,1 -1.8,1.7 -2.5,2.2c-0.7,0.5 -1.8,1.1 -3.2,1.8l4.1,0z" class="st0"/>
   <path id="svg_11" d="m272.1,67.7l29.7,0l1.7,7.7l-1.7,0c-1.2,-2 -2.5,-3.5 -3.8,-4.4c-1.3,-0.9 -2.5,-1.5 -3.7,-1.7c-1.2,-0.2 -2.7,-0.3 -4.5,-0.3l0,26.4c0,1 0.2,1.8 0.5,2.3c0.3,0.5 0.9,0.9 1.6,1.1c0.7,0.2 1.8,0.3 3.1,0.4l0,1.3l-16.4,0l0,-1.3c1.4,0 2.4,-0.1 3.1,-0.3c0.7,-0.2 1.3,-0.5 1.6,-1.1c0.4,-0.6 0.5,-1.5 0.5,-2.7l0,-26.1c-1.7,0 -3.1,0.2 -4.4,0.5c-1.2,0.3 -2.3,0.7 -3.1,1.3c-0.8,0.5 -1.5,1.1 -2.1,1.7c-0.6,0.6 -1.4,1.6 -2.4,2.9l-1.4,0l1.7,-7.7zm4.3,1.3l-3.8,0l-0.9,4c0.8,-1 1.5,-1.8 2.1,-2.3c0.6,-0.6 1.5,-1.1 2.6,-1.7m9.8,25.6l0,-22.9c0,-0.9 -0.1,-1.6 -0.3,-2c-0.2,-0.4 -0.6,-0.7 -1.2,-0.7l0,26.4c0,1 -0.1,1.7 -0.4,2.3c-0.2,0.6 -0.7,1.1 -1.3,1.5l0.5,0c1.1,0 1.9,-0.4 2.2,-1.1c0.3,-0.6 0.5,-1.8 0.5,-3.5m14.6,-21.9l-1.1,-3.7l-4.4,0c1.2,0.4 2.2,0.9 3,1.4c0.9,0.6 1.7,1.4 2.5,2.3" class="st0"/>
   <path id="svg_12" d="m316,84c0,-1.4 0.1,-2.7 0.4,-4c0.3,-1.3 0.7,-2.4 1.2,-3.6c0.5,-1.1 1.2,-2.2 1.9,-3.2c0.8,-1 1.6,-1.9 2.6,-2.6c1,-0.8 2.1,-1.5 3.3,-2c1.2,-0.5 2.4,-0.9 3.8,-1.2c1.4,-0.2 2.8,-0.4 4.4,-0.4c2.6,0 5,0.4 7.2,1.3c2.2,0.9 4,2.1 5.5,3.7c1.5,1.6 2.7,3.4 3.5,5.4c0.8,2 1.2,4.2 1.2,6.5c0,2.4 -0.4,4.7 -1.3,6.8c-0.9,2.1 -2.2,3.9 -3.8,5.5c-1.6,1.6 -3.6,2.8 -5.8,3.6c-2.2,0.9 -4.6,1.3 -7.2,1.3c-2.4,0 -4.6,-0.4 -6.7,-1.3s-3.9,-2 -5.4,-3.5c-1.5,-1.5 -2.7,-3.3 -3.5,-5.5c-0.9,-2.1 -1.3,-4.3 -1.3,-6.8m8.7,-14.3c-2.6,1.6 -4.6,3.6 -5.9,6.1c-1.3,2.5 -2,5.2 -2,8.3c0,2.6 0.4,4.9 1.3,7c0.9,2.1 2.2,3.9 3.9,5.4c1.7,1.5 3.8,2.7 6.3,3.5c-3.1,-1.6 -5.5,-3.7 -7.3,-6.4s-2.7,-6 -2.7,-10c0,-2 0.2,-3.7 0.7,-5.3c0.5,-1.6 1.2,-3.1 2.2,-4.5c0.9,-1.4 2.1,-2.8 3.5,-4.1m-2.2,11.8c0,2.7 0.3,5.2 0.8,7.4c0.6,2.3 1.4,4.2 2.4,5.8c1,1.6 2.3,2.9 3.7,3.7c1.4,0.9 3,1.3 4.6,1.3c1.4,0 2.7,-0.3 4,-0.9c1.3,-0.6 2.4,-1.5 3.3,-2.7c1,-1.2 1.7,-2.7 2.2,-4.4c0.5,-1.8 0.8,-3.8 0.8,-6.1c0,-2.5 -0.3,-4.9 -0.9,-7.1c-0.6,-2.2 -1.4,-4 -2.5,-5.5c-1.1,-1.5 -2.3,-2.7 -3.8,-3.5c-1.5,-0.8 -3,-1.2 -4.7,-1.2c-1.4,0 -2.8,0.3 -4,0.9c-1.2,0.6 -2.3,1.5 -3.2,2.7c-0.9,1.2 -1.6,2.5 -2.1,4.1c-0.3,1.7 -0.6,3.5 -0.6,5.5m14.4,-12.8c1.8,0.9 3.3,2.2 4.5,3.8c1.2,1.6 2.2,3.6 2.8,5.9c0.6,2.3 0.9,4.8 0.9,7.5c0,2.6 -0.4,4.8 -1.1,6.7c-0.7,1.9 -1.7,3.6 -3,5c1.3,-1 2.4,-2 3.2,-3.3c0.8,-1.2 1.4,-2.6 1.8,-4.1c0.4,-1.5 0.6,-3.3 0.6,-5.2c0,-2.8 -0.4,-5.3 -1.2,-7.6c-0.8,-2.3 -1.9,-4.3 -3.4,-5.8c-1.3,-1.5 -3.1,-2.5 -5.1,-2.9" class="st0"/>
   <path id="svg_13" d="m386.4,67.7l10.8,0l0,1.3c-1.2,0.1 -2.4,0.7 -3.4,2.1c-1.1,1.3 -2.1,3.3 -3.2,5.9l-9.7,24.2l-1.3,0l-11.9,-28.2c-0.7,-1.7 -1.3,-2.8 -1.7,-3.2c-0.5,-0.4 -1.4,-0.6 -2.8,-0.7l0,-1.3l14.1,0l0,1.3l-0.4,0c-1,0 -1.8,0.2 -2.4,0.6c-0.6,0.4 -0.8,0.9 -0.8,1.5c0,0 0.1,0.2 0.2,0.8c0.1,0.6 0.2,1 0.3,1.3l8.5,20.2l6.1,-15.3c0.9,-2.1 1.3,-3.9 1.3,-5.2c0,-1.3 -0.3,-2.2 -1,-2.9c-0.6,-0.7 -1.6,-1 -2.7,-1l0,-1.4zm-18,4.9l11.5,27.3c0.5,-0.8 0.7,-1.4 0.7,-1.8c0,-0.4 -0.2,-1 -0.7,-2l-9.8,-23.3c-0.4,-1 -0.8,-1.8 -1.1,-2.3c-0.3,-0.5 -0.7,-0.9 -1.2,-1.2c-0.5,-0.3 -1.2,-0.4 -2,-0.5c0.6,0.2 1,0.6 1.4,1.1c0.3,0.6 0.7,1.4 1.2,2.7m25,-3.6l-4.6,0c1.2,0.7 1.9,1.9 2,3.7c0.7,-1.7 1.6,-2.9 2.6,-3.7" class="st0"/>
   <polygon id="svg_14" points="145,131.89999389648438 145,134 140.10000610351562,134 140.10000610351562,143.29998779296875 137.6999969482422,143.29998779296875 137.6999969482422,121.89999389648438 146.1999969482422,121.89999389648438 146.1999969482422,124.10000610351562 140.10000610351562,124.10000610351562 140.10000610351562,131.89999389648438 " class="st0"/>
   <path id="svg_15" d="m162.3,139l-0.8,4.3l-2.2,0l4.1,-21.4l3.5,0l4.1,21.4l-2.4,0l-0.8,-4.3l-5.5,0zm0.3,-2.1l4.8,0l-2.4,-12.3l-2.4,12.3z" class="st0"/>
   <polygon id="svg_16" points="192.89999389648438,143.20001220703125 190.60000610351562,143.20001220703125 187.10000610351562,126.19999694824219 187.10000610351562,143.29998779296875 185,143.29998779296875 185,121.89999389648438 188.29998779296875,121.89999389648438 191.79998779296875,139 195.20001220703125,121.89999389648438 198.60000610351562,121.89999389648438 198.60000610351562,143.29998779296875 196.29998779296875,143.29998779296875 196.29998779296875,126.10000610351562 " class="st0"/>
   <rect id="svg_17" height="21.4" width="2.4" class="st0" y="121.9" x="213.2"/>
   <polygon id="svg_18" points="230.29998779296875,143.29998779296875 230.29998779296875,121.89999389648438 232.60000610351562,121.89999389648438 232.60000610351562,141.10000610351562 238.70001220703125,141.10000610351562 238.70001220703125,143.29998779296875 " class="st0"/>
   <polygon id="svg_19" points="254.70001220703125,135.60000610351562 250.10000610351562,121.89999389648438 252.60000610351562,121.89999389648438 255.89999389648438,132.39999389648438 259.29998779296875,121.89999389648438 261.6000061035156,121.89999389648438 257,135.60000610351562 257,143.29998779296875 254.70001220703125,143.29998779296875 " class="st0"/>
   <rect id="svg_20" height="1.2" width="269.2" class="st0" y="110.6" x="58"/>
   <path id="svg_21" d="m221.6,3.6l-0.7,0c-7.9,0 -14,3.8 -17.7,6.8c-0.6,-0.2 -1.6,-0.5 -3.6,-0.5c-1.9,0 -3,0.2 -3.6,0.5c-3.7,-3.1 -9.8,-6.8 -17.7,-6.8l-0.7,0c-1.5,3.2 -2.3,6.8 -2.3,10.7s0.8,7.4 2.3,10.7l0.7,0c7.9,0 14,-3.8 17.7,-6.8c0.6,0.2 1.6,0.5 3.6,0.5c1.9,0 3,-0.2 3.6,-0.5c3.7,3.1 9.8,6.8 17.7,6.8l0.7,0c1.5,-3.2 2.3,-6.8 2.3,-10.7s-0.8,-7.5 -2.3,-10.7" class="st0"/>
  </g>
 </g>
</svg>